<?xml version="1.0" encoding="UTF-8"?>
<svg width="442px" height="130px" viewBox="0 0 442 130" version="1.1" xmlns="http://www.w3.org/2000/svg" xmlns:xlink="http://www.w3.org/1999/xlink">
    <!-- Generator: Sketch 47.1 (45422) - http://www.bohemiancoding.com/sketch -->
    <title>Artboard</title>
    <desc>Created with Sketch.</desc>
    <defs></defs>
    <g id="Page-1" stroke="none" stroke-width="1" fill="none" fill-rule="evenodd">
        <g id="Artboard" fill="#FFFFFE">
            <g id="WelTec_1_white-on-blue">
                <path d="M358.882,46.974 L373.525,47.007 L373.532,44.243 C373.544,39.78 372.998,36.703 371.917,35.013 C370.836,33.316 368.928,32.471 366.181,32.464 C363.518,32.459 361.61,33.336 360.483,35.079 C359.358,36.821 358.785,39.864 358.776,44.209 C358.854,45.448 358.884,46.371 358.882,46.974 M373.991,65.473 L388.171,65.506 C388.169,65.802 388.191,66.232 388.228,66.798 C388.26,67.365 388.275,67.776 388.275,68.037 C388.26,75.467 386.476,80.92 382.923,84.388 C379.364,87.853 373.746,89.568 366.05,89.55 C361.998,89.541 358.598,89.021 355.862,87.996 C353.125,86.988 350.882,85.4 349.119,83.254 C347.029,80.742 345.548,77.566 344.691,73.734 C343.843,69.904 343.421,63.02 343.445,53.072 C343.464,45.149 343.851,39.488 344.618,36.077 C345.372,32.665 346.659,29.864 348.461,27.694 C350.34,25.446 352.796,23.762 355.816,22.628 C358.841,21.485 362.434,20.915 366.595,20.925 C370.616,20.934 374.077,21.558 376.984,22.789 C379.886,24.012 382.296,25.861 384.203,28.342 C385.812,30.519 386.96,33.263 387.648,36.552 C388.334,39.835 388.674,45.125 388.656,52.444 L388.646,57.397 L359.028,57.33 C358.955,57.821 358.909,58.346 358.884,58.896 C358.863,59.431 358.854,60.293 358.851,61.494 C358.833,67.691 359.396,72.023 360.544,74.507 C361.68,76.983 363.622,78.225 366.353,78.231 C369.027,78.238 370.955,77.252 372.165,75.243 C373.373,73.234 373.98,69.974 373.991,65.473" id="Fill-3"></path>
                <path d="M440.371,62.417 C440.414,62.863 440.437,63.353 440.458,63.862 C440.48,64.365 440.484,65.095 440.482,66.077 C440.461,74.146 438.735,80.112 435.285,83.943 C431.85,87.784 426.52,89.691 419.313,89.674 C411.14,89.654 405.432,87.219 402.19,82.367 C398.955,77.524 397.351,68.514 397.381,55.338 C397.412,42.202 399.058,33.2 402.316,28.328 C405.579,23.458 411.295,21.028 419.47,21.047 C426.647,21.065 431.936,22.86 435.337,26.431 C438.744,30.005 440.434,35.528 440.416,42.985 L440.411,45.297 L426.014,45.264 L426.016,43.803 C426.025,39.859 425.519,37.033 424.507,35.302 C423.504,33.571 421.854,32.701 419.564,32.696 C417.236,32.691 415.552,33.539 414.519,35.225 C413.483,36.91 412.96,39.732 412.948,43.664 L412.899,66.123 C412.887,70.594 413.367,73.702 414.345,75.472 C415.314,77.241 416.986,78.126 419.339,78.13 C421.894,78.137 423.671,77.132 424.671,75.102 C425.667,73.079 426.179,69.289 426.19,63.733 L426.192,62.328 L440.371,62.417" id="Fill-4"></path>
                <path d="M31.218,45.62 L46.727,30.183 L62.165,45.692 L46.656,61.128 L31.218,45.62 Z M91.265,1.284 C91.265,1.284 92.741,10.323 89.898,23.266 C92.131,29.994 91.12,35.087 91.12,35.087 C91.12,35.087 91.2,31.737 89.078,26.656 C88.498,28.814 87.799,31.062 86.958,33.377 C93.693,47.148 91.386,57.824 91.386,57.824 C91.386,57.824 91.946,49.587 85.284,37.598 C84.149,40.252 82.812,42.971 81.246,45.732 C94.563,69.461 91.065,90.229 91.065,90.229 C91.065,90.229 70.279,93.631 46.612,80.206 C43.848,81.759 41.118,83.084 38.46,84.212 C50.414,90.925 58.659,90.405 58.659,90.405 C58.659,90.405 47.973,92.661 34.231,85.867 C31.913,86.699 29.665,87.385 27.501,87.952 C32.57,90.096 35.92,90.03 35.92,90.03 C35.92,90.03 30.825,91.024 24.111,88.759 C11.146,91.543 2.114,90.023 2.114,90.023 C2.114,90.023 0.635,80.981 3.479,68.033 C1.252,61.307 2.265,56.219 2.265,56.219 C2.265,56.219 2.184,59.57 4.302,64.646 C4.881,62.487 5.577,60.237 6.419,57.923 C-0.306,44.158 1.996,33.483 1.996,33.483 C1.996,33.483 1.437,41.719 8.095,53.705 C9.235,51.052 10.571,48.33 12.134,45.575 C-1.179,21.842 2.324,1.083 2.324,1.083 C2.324,1.083 23.102,-2.322 46.77,11.098 C49.533,9.547 52.259,8.22 54.916,7.093 C42.967,0.383 34.724,0.902 34.724,0.902 C34.724,0.902 45.408,-1.349 59.148,5.44 C61.463,4.607 63.717,3.921 65.879,3.352 C60.812,1.214 57.462,1.278 57.462,1.278 C57.462,1.278 62.554,0.287 69.272,2.544 C82.23,-0.24 91.265,1.284 91.265,1.284 L91.265,1.284 Z M78.147,50.781 C74.957,55.589 71.031,60.47 66.216,65.271 C61.393,70.065 56.499,73.967 51.673,77.132 C73.627,90.914 91.065,90.229 91.065,90.229 C91.065,90.229 91.826,72.798 78.147,50.781 L78.147,50.781 Z M2.114,90.023 C2.114,90.023 9.185,90.333 20.004,87.026 C17.228,85.606 14.317,83.582 11.466,80.718 C8.613,77.849 6.605,74.926 5.197,72.148 C1.838,82.953 2.114,90.023 2.114,90.023 L2.114,90.023 Z M23.411,85.901 C25.425,85.19 27.548,84.355 29.754,83.375 C25.995,81.051 22.08,78.015 18.146,74.069 C14.216,70.12 11.197,66.186 8.891,62.413 C7.897,64.614 7.059,66.732 6.338,68.747 C8.026,71.688 10.423,74.97 13.814,78.379 C17.207,81.787 20.473,84.196 23.411,85.901 L23.411,85.901 Z M33.911,81.406 C36.384,80.16 38.94,78.739 41.562,77.108 C36.751,73.922 31.875,69.999 27.074,65.176 C22.278,60.358 18.378,55.46 15.214,50.637 C13.571,53.251 12.134,55.8 10.877,58.266 C13.51,62.219 16.916,66.477 21.327,70.908 C25.731,75.334 29.971,78.76 33.911,81.406 L33.911,81.406 Z M46.625,73.755 C51.579,70.266 56.702,66.032 61.864,60.896 C67.024,55.757 71.28,50.651 74.791,45.718 C71.303,40.766 67.072,35.642 61.932,30.482 C56.791,25.322 51.689,21.06 46.755,17.551 C41.803,21.038 36.677,25.271 31.516,30.412 C26.356,35.549 22.099,40.654 18.589,45.587 C22.078,50.537 26.311,55.663 31.452,60.827 C36.586,65.986 41.692,70.243 46.625,73.755 L46.625,73.755 Z M78.17,40.67 C79.81,38.053 81.246,35.505 82.504,33.038 C79.874,29.085 76.468,24.831 72.064,20.405 C67.654,15.973 63.409,12.548 59.469,9.897 C56.993,11.142 54.441,12.568 51.817,14.197 C56.629,17.384 61.506,21.309 66.304,26.13 C71.106,30.947 75.004,35.842 78.17,40.67 L78.17,40.67 Z M84.491,28.888 C85.48,26.686 86.326,24.569 87.047,22.558 C85.352,19.614 82.96,16.336 79.57,12.931 C76.177,9.521 72.902,7.11 69.969,5.403 C67.953,6.117 65.835,6.952 63.627,7.929 C67.386,10.257 71.304,13.291 75.236,17.24 C79.164,21.192 82.182,25.116 84.491,28.888 L84.491,28.888 Z M88.185,19.15 C91.541,8.352 91.265,1.284 91.265,1.284 C91.265,1.284 84.196,0.974 73.375,4.28 C76.151,5.701 79.062,7.725 81.915,10.587 C84.768,13.456 86.78,16.377 88.185,19.15 L88.185,19.15 Z M41.706,14.174 C19.755,0.399 2.324,1.083 2.324,1.083 C2.324,1.083 1.558,18.508 15.237,40.525 C18.422,35.712 22.348,30.836 27.163,26.039 C31.984,21.241 36.882,17.337 41.706,14.174 L41.706,14.174 Z" id="Fill-5"></path>
                <polyline id="Fill-6" points="140.714 89.592 124.084 2.867 140.808 2.906 151.238 68.622 162.702 2.956 176.097 2.988 188.385 70.007 197.772 3.037 214.325 3.075 198.362 89.724 179.221 89.68 169.325 34.893 159.968 89.636 140.714 89.592"></polyline>
                <polyline id="Fill-7" points="272.181 3.215 287.16 3.249 286.96 89.936 271.983 89.901 272.181 3.215"></polyline>
                <path d="M230.865,47.338 L245.506,47.373 L245.512,44.608 C245.525,40.146 244.979,37.068 243.896,35.378 C242.816,33.682 240.9,32.835 238.162,32.829 C235.495,32.824 233.606,33.702 232.467,35.444 C231.342,37.186 230.767,40.228 230.758,44.576 C230.833,45.813 230.868,46.737 230.865,47.338 M245.972,65.839 L260.153,65.871 C260.151,66.166 260.169,66.598 260.207,67.164 C260.244,67.73 260.258,68.141 260.258,68.403 C260.242,75.831 258.464,81.287 254.907,84.754 C251.348,88.218 245.727,89.932 238.031,89.915 C233.979,89.906 230.584,89.387 227.851,88.361 C225.106,87.352 222.863,85.765 221.102,83.621 C219.002,81.107 217.529,77.932 216.679,74.1 C215.818,70.27 215.41,63.385 215.432,53.438 C215.45,45.515 215.841,39.853 216.598,36.443 C217.351,33.031 218.633,30.23 220.442,28.06 C222.319,25.811 224.768,24.128 227.794,22.994 C230.825,21.85 234.417,21.28 238.578,21.289 C242.602,21.298 246.058,21.923 248.967,23.153 C251.869,24.378 254.278,26.226 256.185,28.706 C257.794,30.885 258.946,33.63 259.633,36.917 C260.312,40.199 260.656,45.492 260.64,52.809 L260.631,57.764 L231.022,57.696 C230.943,58.186 230.891,58.712 230.868,59.261 C230.846,59.798 230.835,60.658 230.833,61.859 C230.817,68.056 231.385,72.388 232.528,74.873 C233.662,77.35 235.605,78.591 238.335,78.597 C241.003,78.603 242.94,77.617 244.145,75.608 C245.354,73.6 245.961,70.339 245.972,65.839" id="Fill-8"></path>
                <polyline id="Fill-9" points="314.474 88.824 314.64 16.432 296.062 16.39 296.097 2.095 349.401 2.218 349.367 16.512 330.794 16.47 330.625 88.861 314.474 88.824"></polyline>
                <polyline id="Fill-10" points="0.387 105.325 16.006 105.325 16.006 108.131 9.783 108.131 9.783 124.055 6.611 124.055 6.611 108.131 0.387 108.131 0.387 105.325"></polyline>
                <path d="M19.362,115.635 L25.25,115.635 C25.158,113.988 24.212,112.768 22.474,112.768 C21.131,112.768 19.82,113.561 19.362,115.635 Z M19.179,117.954 C19.393,120.607 21.193,121.736 23.358,121.736 C24.883,121.736 25.951,121.371 27.232,120.486 L27.232,123.17 C26.073,124.024 24.639,124.36 22.931,124.36 C18.965,124.36 16.22,121.676 16.22,117.405 C16.22,113.165 18.813,110.206 22.443,110.206 C26.195,110.206 28.147,112.89 28.147,116.855 L28.147,117.954 L19.179,117.954 L19.179,117.954 Z" id="Fill-11"></path>
                <polyline id="Fill-12" points="49.715 105.325 53.253 119.113 56.639 105.325 59.689 105.325 54.87 124.055 51.941 124.055 48.402 110.663 44.803 124.055 41.906 124.055 37.085 105.325 40.197 105.325 43.583 119.113 47.152 105.325 49.715 105.325"></polyline>
                <path d="M61.215,104.227 L64.266,104.227 L64.266,111.792 C64.998,110.938 66.34,110.206 67.926,110.206 C71.007,110.206 72.716,112.25 72.716,115.239 L72.716,124.055 L69.665,124.055 L69.665,115.758 C69.665,114.08 68.841,112.982 67.103,112.982 C65.79,112.982 64.601,113.805 64.266,115.147 L64.266,124.055 L61.215,124.055 L61.215,104.227" id="Fill-13"></path>
                <path d="M84.154,119.327 C83.819,118.472 82.63,117.954 81.41,117.954 C80.037,117.954 78.603,118.533 78.603,119.875 C78.603,121.248 80.037,121.828 81.41,121.828 C82.63,121.828 83.819,121.309 84.154,120.456 L84.154,119.327 Z M84.154,115.391 C84.154,113.867 82.935,112.982 81.043,112.982 C79.579,112.982 78.39,113.439 77.291,114.171 L77.291,111.365 C78.176,110.724 79.884,110.206 81.592,110.206 C85.1,110.206 87.083,112.097 87.083,115.178 L87.083,124.055 L84.154,124.055 L84.154,123.292 C83.697,123.75 82.355,124.299 80.83,124.299 C78.054,124.299 75.766,122.652 75.766,119.875 C75.766,117.313 78.054,115.514 81.043,115.514 C82.263,115.514 83.606,115.94 84.154,116.337 L84.154,115.391 L84.154,115.391 Z" id="Fill-14"></path>
                <path d="M98.584,113.592 C98.157,113.286 97.425,113.134 96.784,113.134 C95.534,113.134 94.375,113.836 94.069,115.3 L94.069,124.055 L91.018,124.055 L91.018,110.51 L94.069,110.51 L94.069,111.914 C94.588,110.907 95.778,110.206 97.089,110.206 C97.76,110.206 98.371,110.328 98.584,110.45 L98.584,113.592" id="Fill-15"></path>
                <path d="M102.854,115.635 L108.742,115.635 C108.65,113.988 107.704,112.768 105.966,112.768 C104.623,112.768 103.312,113.561 102.854,115.635 Z M102.671,117.954 C102.885,120.607 104.685,121.736 106.85,121.736 C108.375,121.736 109.443,121.371 110.724,120.486 L110.724,123.17 C109.565,124.024 108.131,124.36 106.423,124.36 C102.457,124.36 99.712,121.676 99.712,117.405 C99.712,113.165 102.305,110.206 105.935,110.206 C109.687,110.206 111.639,112.89 111.639,116.855 L111.639,117.954 L102.671,117.954 L102.671,117.954 Z" id="Fill-16"></path>
                <polyline id="Fill-17" points="133.207 105.325 136.745 119.113 140.131 105.325 143.181 105.325 138.362 124.055 135.433 124.055 131.894 110.663 128.295 124.055 125.398 124.055 120.577 105.325 123.689 105.325 127.075 119.113 130.644 105.325 133.207 105.325"></polyline>
                <path d="M151.143,119.327 C150.808,118.472 149.619,117.954 148.398,117.954 C147.026,117.954 145.591,118.533 145.591,119.875 C145.591,121.248 147.026,121.828 148.398,121.828 C149.619,121.828 150.808,121.309 151.143,120.456 L151.143,119.327 Z M145.531,108.07 L152.394,108.07 L152.394,105.661 L145.531,105.661 L145.531,108.07 Z M151.143,115.391 C151.143,113.867 149.924,112.982 148.032,112.982 C146.568,112.982 145.378,113.439 144.28,114.171 L144.28,111.365 C145.165,110.724 146.873,110.206 148.581,110.206 C152.089,110.206 154.072,112.097 154.072,115.178 L154.072,124.055 L151.143,124.055 L151.143,123.292 C150.686,123.75 149.343,124.299 147.819,124.299 C145.043,124.299 142.754,122.652 142.754,119.875 C142.754,117.313 145.043,115.514 148.032,115.514 C149.252,115.514 150.595,115.94 151.143,116.337 L151.143,115.391 L151.143,115.391 Z" id="Fill-18"></path>
                <path d="M158.007,110.51 L161.058,110.51 L161.058,111.792 C161.79,110.938 163.132,110.206 164.719,110.206 C167.8,110.206 169.508,112.25 169.508,115.239 L169.508,124.055 L166.457,124.055 L166.457,115.758 C166.457,114.08 165.634,112.982 163.895,112.982 C162.583,112.982 161.394,113.805 161.058,115.147 L161.058,124.055 L158.007,124.055 L158.007,110.51" id="Fill-19"></path>
                <path d="M180.947,119.327 C180.611,118.472 179.422,117.954 178.202,117.954 C176.829,117.954 175.395,118.533 175.395,119.875 C175.395,121.248 176.829,121.828 178.202,121.828 C179.422,121.828 180.611,121.309 180.947,120.456 L180.947,119.327 Z M180.947,115.391 C180.947,113.867 179.727,112.982 177.835,112.982 C176.371,112.982 175.182,113.439 174.084,114.171 L174.084,111.365 C174.968,110.724 176.677,110.206 178.385,110.206 C181.893,110.206 183.875,112.097 183.875,115.178 L183.875,124.055 L180.947,124.055 L180.947,123.292 C180.49,123.75 179.147,124.299 177.622,124.299 C174.847,124.299 172.558,122.652 172.558,119.875 C172.558,117.313 174.847,115.514 177.835,115.514 C179.056,115.514 180.398,115.94 180.947,116.337 L180.947,115.391 L180.947,115.391 Z" id="Fill-20"></path>
                <path d="M187.811,110.51 L190.862,110.51 L190.862,111.792 C191.594,110.938 192.936,110.206 194.522,110.206 C197.603,110.206 199.312,112.25 199.312,115.239 L199.312,124.055 L196.261,124.055 L196.261,115.758 C196.261,114.08 195.437,112.982 193.699,112.982 C192.386,112.982 191.197,113.805 190.862,115.147 L190.862,124.055 L187.811,124.055 L187.811,110.51" id="Fill-21"></path>
                <path d="M211.971,114.506 C211.452,113.592 210.355,112.89 209.073,112.89 C206.724,112.89 205.382,114.69 205.382,117.161 C205.382,119.631 206.724,121.432 209.073,121.432 C210.355,121.432 211.452,120.73 211.971,119.815 L211.971,114.506 Z M211.971,122.712 C211.361,123.444 210.08,124.116 208.555,124.116 C204.558,124.116 202.301,120.791 202.301,117.161 C202.301,113.53 204.558,110.206 208.555,110.206 C210.08,110.206 211.361,110.877 211.971,111.609 L211.971,110.51 L215.021,110.51 L215.021,122.926 C215.021,127.868 211.27,129.545 208.067,129.545 C206.266,129.545 204.65,129.088 203.552,128.386 L203.552,125.153 C204.955,126.404 206.358,126.861 208.067,126.861 C210.232,126.861 211.971,125.58 211.971,123.14 L211.971,122.712 L211.971,122.712 Z" id="Fill-22"></path>
                <path d="M226.645,119.327 C226.308,118.472 225.119,117.954 223.899,117.954 C222.526,117.954 221.092,118.533 221.092,119.875 C221.092,121.248 222.526,121.828 223.899,121.828 C225.119,121.828 226.308,121.309 226.645,120.456 L226.645,119.327 Z M226.645,115.391 C226.645,113.867 225.424,112.982 223.533,112.982 C222.068,112.982 220.879,113.439 219.781,114.171 L219.781,111.365 C220.665,110.724 222.374,110.206 224.082,110.206 C227.59,110.206 229.573,112.097 229.573,115.178 L229.573,124.055 L226.645,124.055 L226.645,123.292 C226.187,123.75 224.844,124.299 223.32,124.299 C220.543,124.299 218.255,122.652 218.255,119.875 C218.255,117.313 220.543,115.514 223.533,115.514 C224.753,115.514 226.095,115.94 226.645,116.337 L226.645,115.391 L226.645,115.391 Z" id="Fill-23"></path>
                <path d="M246.076,112.829 C243.879,112.829 242.689,114.72 242.689,117.283 C242.689,119.845 243.879,121.736 246.076,121.736 C248.272,121.736 249.461,119.845 249.461,117.283 C249.461,114.72 248.272,112.829 246.076,112.829 Z M246.076,124.36 C242.262,124.36 239.639,121.432 239.639,117.283 C239.639,113.134 242.262,110.206 246.076,110.206 C249.889,110.206 252.512,113.134 252.512,117.283 C252.512,121.432 249.889,124.36 246.076,124.36 L246.076,124.36 Z" id="Fill-24"></path>
                <polyline id="Fill-25" points="267.429 124.055 264.378 124.055 264.378 113.042 261.633 113.042 261.633 110.51 264.378 110.51 264.378 106.881 267.429 106.881 267.429 110.51 270.479 110.51 270.479 113.042 267.429 113.042 267.429 124.055"></polyline>
                <path d="M275.39,115.635 L281.278,115.635 C281.187,113.988 280.241,112.768 278.502,112.768 C277.16,112.768 275.848,113.561 275.39,115.635 Z M275.207,117.954 C275.421,120.607 277.221,121.736 279.386,121.736 C280.912,121.736 281.979,121.371 283.261,120.486 L283.261,123.17 C282.102,124.024 280.668,124.36 278.959,124.36 C274.994,124.36 272.249,121.676 272.249,117.405 C272.249,113.165 274.842,110.206 278.471,110.206 C282.223,110.206 284.176,112.89 284.176,116.855 L284.176,117.954 L275.207,117.954 L275.207,117.954 Z" id="Fill-26"></path>
                <path d="M299.337,116.123 L304.462,116.123 L301.899,109.199 L299.337,116.123 Z M303.455,105.325 L310.654,124.055 L307.42,124.055 L305.499,118.869 L298.33,118.869 L296.409,124.055 L293.206,124.055 L300.405,105.325 L303.455,105.325 L303.455,105.325 Z" id="Fill-27"></path>
                <polyline id="Fill-28" points="323.832 120.119 326.455 110.51 329.415 110.51 325.479 124.055 322.429 124.055 320.019 114.629 317.61 124.055 314.559 124.055 310.624 110.51 313.674 110.51 316.297 120.119 318.677 110.51 321.453 110.51 323.832 120.119"></polyline>
                <path d="M338.933,119.327 C338.597,118.472 337.408,117.954 336.188,117.954 C334.815,117.954 333.381,118.533 333.381,119.875 C333.381,121.248 334.815,121.828 336.188,121.828 C337.408,121.828 338.597,121.309 338.933,120.456 L338.933,119.327 Z M338.933,115.391 C338.933,113.867 337.712,112.982 335.821,112.982 C334.357,112.982 333.168,113.439 332.069,114.171 L332.069,111.365 C332.954,110.724 334.662,110.206 336.37,110.206 C339.878,110.206 341.862,112.097 341.862,115.178 L341.862,124.055 L338.933,124.055 L338.933,123.292 C338.475,123.75 337.133,124.299 335.608,124.299 C332.831,124.299 330.544,122.652 330.544,119.875 C330.544,117.313 332.831,115.514 335.821,115.514 C337.041,115.514 338.384,115.94 338.933,116.337 L338.933,115.391 L338.933,115.391 Z" id="Fill-29"></path>
                <polyline id="Fill-30" points="358.029 124.055 354.338 124.055 348.847 117.557 348.847 124.055 345.796 124.055 345.796 104.227 348.847 104.227 348.847 116.002 354.094 110.51 357.907 110.51 351.837 116.673 358.029 124.055"></polyline>
                <path d="M367.607,119.327 C367.272,118.472 366.083,117.954 364.862,117.954 C363.49,117.954 362.056,118.533 362.056,119.875 C362.056,121.248 363.49,121.828 364.862,121.828 C366.083,121.828 367.272,121.309 367.607,120.456 L367.607,119.327 Z M367.607,115.391 C367.607,113.867 366.388,112.982 364.496,112.982 C363.032,112.982 361.842,113.439 360.744,114.171 L360.744,111.365 C361.629,110.724 363.337,110.206 365.045,110.206 C368.553,110.206 370.536,112.097 370.536,115.178 L370.536,124.055 L367.607,124.055 L367.607,123.292 C367.15,123.75 365.807,124.299 364.283,124.299 C361.507,124.299 359.218,122.652 359.218,119.875 C359.218,117.313 361.507,115.514 364.496,115.514 C365.716,115.514 367.059,115.94 367.607,116.337 L367.607,115.391 L367.607,115.391 Z" id="Fill-31"></path>
                <path d="M374.471,124.055 L377.522,124.055 L377.522,110.51 L374.471,110.51 L374.471,124.055 Z M375.997,108.284 C374.99,108.284 374.106,107.46 374.106,106.423 C374.106,105.386 374.99,104.562 375.997,104.562 C377.003,104.562 377.888,105.386 377.888,106.423 C377.888,107.46 377.003,108.284 375.997,108.284 L375.997,108.284 Z" id="Fill-32"></path>
                <path d="M390.425,113.592 C389.998,113.286 389.266,113.134 388.625,113.134 C387.375,113.134 386.216,113.836 385.911,115.3 L385.911,124.055 L382.86,124.055 L382.86,110.51 L385.911,110.51 L385.911,111.914 C386.429,110.907 387.619,110.206 388.931,110.206 C389.602,110.206 390.212,110.328 390.425,110.45 L390.425,113.592" id="Fill-33"></path>
                <path d="M400.005,119.327 C399.668,118.472 398.479,117.954 397.259,117.954 C395.886,117.954 394.452,118.533 394.452,119.875 C394.452,121.248 395.886,121.828 397.259,121.828 C398.479,121.828 399.668,121.309 400.005,120.456 L400.005,119.327 Z M400.005,115.391 C400.005,113.867 398.784,112.982 396.893,112.982 C395.428,112.982 394.239,113.439 393.141,114.171 L393.141,111.365 C394.025,110.724 395.734,110.206 397.442,110.206 C400.95,110.206 402.933,112.097 402.933,115.178 L402.933,124.055 L400.005,124.055 L400.005,123.292 C399.547,123.75 398.204,124.299 396.68,124.299 C393.903,124.299 391.615,122.652 391.615,119.875 C391.615,117.313 393.903,115.514 396.893,115.514 C398.113,115.514 399.455,115.94 400.005,116.337 L400.005,115.391 L400.005,115.391 Z" id="Fill-34"></path>
                <path d="M406.868,110.51 L409.919,110.51 L409.919,111.792 C410.651,110.938 411.993,110.206 413.579,110.206 C416.66,110.206 418.369,112.25 418.369,115.239 L418.369,124.055 L415.318,124.055 L415.318,115.758 C415.318,114.08 414.494,112.982 412.756,112.982 C411.444,112.982 410.254,113.805 409.919,115.147 L409.919,124.055 L406.868,124.055 L406.868,110.51" id="Fill-35"></path>
                <path d="M431.028,114.506 C430.509,113.592 429.412,112.89 428.13,112.89 C425.781,112.89 424.439,114.69 424.439,117.161 C424.439,119.631 425.781,121.432 428.13,121.432 C429.412,121.432 430.509,120.73 431.028,119.815 L431.028,114.506 Z M431.028,122.712 C430.418,123.444 429.137,124.116 427.611,124.116 C423.615,124.116 421.358,120.791 421.358,117.161 C421.358,113.53 423.615,110.206 427.611,110.206 C429.137,110.206 430.418,110.877 431.028,111.609 L431.028,110.51 L434.079,110.51 L434.079,122.926 C434.079,127.868 430.327,129.545 427.123,129.545 C425.323,129.545 423.707,129.088 422.609,128.386 L422.609,125.153 C424.012,126.404 425.416,126.861 427.123,126.861 C429.289,126.861 431.028,125.58 431.028,123.14 L431.028,122.712 L431.028,122.712 Z" id="Fill-36"></path>
                <path d="M438.196,124.055 L441.247,124.055 L441.247,110.51 L438.196,110.51 L438.196,124.055 Z M439.722,108.284 C438.715,108.284 437.831,107.46 437.831,106.423 C437.831,105.386 438.715,104.562 439.722,104.562 C440.728,104.562 441.613,105.386 441.613,106.423 C441.613,107.46 440.728,108.284 439.722,108.284 L439.722,108.284 Z" id="Fill-37"></path>
            </g>
        </g>
    </g>
</svg>